<svg width="352" height="289" viewBox="0 0 352 289" fill="none" xmlns="http://www.w3.org/2000/svg">
<ellipse rx="136" ry="127.554" transform="matrix(-1 0 0 1 166.869 144.445)" fill="#F3F3F3"/>
<path fill-rule="evenodd" clip-rule="evenodd" d="M280.737 200.181C280.796 200.147 281.162 200.63 281.703 201.581C282.247 202.53 282.923 203.97 283.551 205.829C284.839 209.534 285.648 215.003 285.169 220.967C284.693 226.931 283.315 232.166 282.251 235.892C281.163 239.62 280.362 241.882 280.224 241.844C280.072 241.802 280.612 239.461 281.505 235.697C282.375 231.933 283.616 226.726 284.081 220.885C284.549 215.045 283.884 209.73 282.815 206.055C281.777 202.362 280.566 200.27 280.737 200.181" fill="white"/>
<path fill-rule="evenodd" clip-rule="evenodd" d="M284.411 170.334C284.48 170.304 284.922 171.114 285.661 172.609C286.399 174.103 287.437 176.281 288.664 178.998C291.098 184.433 294.374 192.041 296.75 200.874C297.918 205.292 298.714 209.587 299.117 213.532C299.524 217.476 299.565 221.059 299.362 224.049C299.165 227.041 298.787 229.442 298.424 231.075C298.064 232.711 297.779 233.592 297.715 233.577C297.514 233.538 298.403 229.938 298.592 224.014C298.827 218.102 298.051 209.888 295.696 201.155C293.347 192.418 290.205 184.806 287.956 179.304C286.823 176.551 285.907 174.322 285.273 172.782C284.654 171.235 284.342 170.365 284.411 170.334" fill="white"/>
<path fill-rule="evenodd" clip-rule="evenodd" d="M148.425 205.365C148.551 205.501 147.314 206.68 145.71 208.87C145.311 209.42 144.879 210.021 144.474 210.709C144.031 211.37 143.646 212.13 143.218 212.914C142.421 214.513 141.665 216.329 141.081 218.307C140.523 220.292 140.198 222.232 140.022 224.01C139.969 224.901 139.892 225.75 139.914 226.545C139.892 227.343 139.938 228.083 139.982 228.761C140.176 231.468 140.597 233.125 140.418 233.173C140.309 233.21 139.617 231.61 139.215 228.84C139.119 228.148 139.027 227.387 139.01 226.564C138.948 225.742 138.992 224.863 139.02 223.936C139.145 222.09 139.453 220.066 140.034 218.005C140.638 215.951 141.453 214.074 142.33 212.443C142.799 211.643 143.228 210.875 143.718 210.213C144.17 209.524 144.653 208.929 145.103 208.394C146.916 206.262 148.353 205.276 148.425 205.365" fill="white"/>
<path fill-rule="evenodd" clip-rule="evenodd" d="M151.327 214.921C151.419 215.067 150.73 215.594 149.83 216.602C149.374 217.099 148.894 217.744 148.422 218.492C147.969 219.252 147.536 220.125 147.196 221.086C146.87 222.053 146.674 223.007 146.562 223.886C146.473 224.765 146.453 225.568 146.505 226.242C146.592 227.59 146.811 228.43 146.648 228.489C146.531 228.538 146.041 227.769 145.741 226.344C145.584 225.634 145.52 224.764 145.561 223.801C145.624 222.84 145.808 221.787 146.165 220.731C146.535 219.679 147.04 218.737 147.582 217.941C148.143 217.157 148.73 216.513 149.291 216.05C150.405 215.112 151.265 214.809 151.327 214.921" fill="white"/>
<path fill-rule="evenodd" clip-rule="evenodd" d="M111.039 125.869C111.096 125.82 111.584 126.3 112.421 127.216C112.847 127.669 113.349 128.24 113.881 128.944C114.418 129.641 115.064 130.416 115.67 131.347C115.983 131.806 116.312 132.287 116.653 132.789C116.991 133.294 117.297 133.846 117.639 134.404C118.337 135.512 118.963 136.763 119.644 138.068C120.93 140.714 122.159 143.718 123.138 146.975C124.086 150.241 124.688 153.431 125.047 156.351C125.184 157.817 125.338 159.207 125.354 160.516C125.371 161.17 125.414 161.8 125.404 162.408C125.391 163.015 125.377 163.596 125.364 164.152C125.361 165.265 125.239 166.265 125.168 167.143C125.104 168.023 124.992 168.774 124.881 169.385C124.677 170.61 124.528 171.278 124.454 171.268C124.261 171.242 124.623 168.529 124.593 164.144C124.583 163.596 124.573 163.023 124.563 162.424C124.55 161.826 124.487 161.206 124.451 160.564C124.397 159.277 124.211 157.913 124.05 156.476C123.642 153.613 123.023 150.49 122.092 147.284C121.131 144.088 119.954 141.13 118.74 138.504C118.095 137.21 117.508 135.964 116.855 134.855C116.535 134.296 116.251 133.741 115.938 133.233C115.621 132.726 115.318 132.238 115.028 131.773C112.67 128.076 110.891 125.995 111.039 125.869" fill="white"/>
<path fill-rule="evenodd" clip-rule="evenodd" d="M123.387 130.978C123.48 130.895 124.732 132.067 126.325 134.325C127.126 135.449 127.971 136.865 128.793 138.499C129.592 140.143 130.353 142.011 130.961 144.034C131.551 146.064 131.926 148.046 132.149 149.861C132.346 151.679 132.407 153.326 132.345 154.706C132.234 157.466 131.819 159.13 131.697 159.111C131.522 159.09 131.662 157.405 131.573 154.705C131.538 153.356 131.399 151.753 131.153 149.992C130.881 148.233 130.488 146.315 129.916 144.344C129.325 142.378 128.613 140.554 127.886 138.93C127.134 137.317 126.38 135.897 125.677 134.744C124.284 132.43 123.252 131.091 123.387 130.978" fill="white"/>
<path fill-rule="evenodd" clip-rule="evenodd" d="M80.1501 220.206L79.2009 218.268L52.7759 238.459L64.3043 257.135L90.6087 234.956L80.1501 220.206Z" fill="#22343D"/>
<path fill-rule="evenodd" clip-rule="evenodd" d="M53.8833 238.891L64.0109 256.405L64.6586 256.116L55.6396 239.74L53.8833 238.891Z" fill="#D7D4D4"/>
<path fill-rule="evenodd" clip-rule="evenodd" d="M79.6282 219.823L53.8833 238.89C53.8833 238.89 53.9912 239.3 54.6301 239.552C55.2698 239.805 55.6396 239.74 55.6396 239.74L82.7059 221.216C82.7059 221.216 81.1456 220.853 80.5798 220.431C80.0131 220.007 79.6282 219.823 79.6282 219.823" fill="#F5F3F3"/>
<path fill-rule="evenodd" clip-rule="evenodd" d="M83.3673 220.468L55.1558 239.312L64.3183 256.677L65.7945 259.082L94.0068 238.202C94.0068 238.202 91.0354 233.767 89.2513 231.089C87.4672 228.411 83.9649 222.096 83.7744 221.691C83.5832 221.287 83.3673 220.468 83.3673 220.468" fill="#FAB005"/>
<path fill-rule="evenodd" clip-rule="evenodd" d="M316.02 90.3744L316.817 88.7466L339.007 105.701L329.326 121.385L307.238 102.76L316.02 90.3744Z" fill="#22343D"/>
<path fill-rule="evenodd" clip-rule="evenodd" d="M338.077 106.064L329.573 120.771L329.029 120.529L336.603 106.777L338.077 106.064Z" fill="#D7D4D4"/>
<path fill-rule="evenodd" clip-rule="evenodd" d="M316.458 90.0518L338.077 106.064C338.077 106.064 337.986 106.407 337.45 106.619C336.913 106.831 336.602 106.777 336.602 106.777L313.874 91.2216C313.874 91.2216 315.184 90.9176 315.659 90.5621C316.135 90.2065 316.458 90.0518 316.458 90.0518" fill="#F5F3F3"/>
<path fill-rule="evenodd" clip-rule="evenodd" d="M313.319 90.5947L337.009 106.418L329.315 121L328.076 123.019L304.384 105.485C304.384 105.485 306.88 101.761 308.377 99.5122C309.877 97.2638 312.817 91.9606 312.977 91.6209C313.137 91.282 313.319 90.5947 313.319 90.5947" fill="#4DADF7"/>
<path fill-rule="evenodd" clip-rule="evenodd" d="M48.6017 59.8582C48.6017 59.8582 46.9264 61.0177 47.7637 62.951C48.6017 64.8844 52.2747 70.6193 57.2365 70.4257C57.4397 70.4185 50.9858 59.8582 50.9858 59.8582H48.6017Z" fill="#22343D"/>
<path fill-rule="evenodd" clip-rule="evenodd" d="M41.0116 165.584C41.0116 165.584 34.8069 160.041 32.8205 161.034C30.3935 162.247 16.5024 175.857 17.0453 182.269C17.2683 184.896 20.3254 182.646 25.7729 176.995C31.2221 171.345 38.0831 173.766 38.0831 173.766L41.0116 165.584Z" fill="#22343D"/>
<path fill-rule="evenodd" clip-rule="evenodd" d="M56.0865 174.932L48.5961 170.438C48.5961 170.438 29.1805 188.64 32.2138 191.067C34.5146 192.908 35.8669 191.257 41.3153 185.606C46.7628 179.957 53.6651 183.206 53.6651 183.206L56.0865 174.932Z" fill="#22343D"/>
<path fill-rule="evenodd" clip-rule="evenodd" d="M101.842 115.046L103.246 134.993L72.0659 126.869L101.842 115.046Z" fill="#F3A683"/>
<path fill-rule="evenodd" clip-rule="evenodd" d="M72.0659 127.556C72.0659 127.556 99.3402 129.275 102.972 128.063C102.972 128.063 108.302 180.426 98.818 186.075C89.3332 191.726 68.0493 183.452 68.0493 183.452L73.7961 172.152L86.1864 171.345V151.166L85.2975 151.368L72.0659 127.556Z" fill="#112129"/>
<path fill-rule="evenodd" clip-rule="evenodd" d="M37.877 163.273C37.877 163.273 31.0168 166.099 33.2366 172.96C33.2366 172.96 56.6545 191.323 68.0496 187.085C74.4337 184.711 81.2915 166.598 86.0891 151.123L102.972 128.063C102.972 128.063 95.0096 128.461 92.3533 128.451C87.2764 128.432 72.0662 127.556 72.0662 127.556C72.0662 127.556 64.1211 169.126 61.2902 170.134C58.4593 171.142 37.877 163.273 37.877 163.273" fill="#22343D"/>
<path fill-rule="evenodd" clip-rule="evenodd" d="M78.4219 75.4178C78.4219 75.4178 94.7677 60.0812 97.5923 56.0447C100.417 52.009 106.472 38.4891 113.936 32.839L110.305 25.1707C110.305 25.1707 112.525 23.9604 113.936 27.1882C113.936 27.1882 119.182 16.6961 120.394 16.8969C121.605 17.0985 117.973 24.9691 117.973 24.9691C117.973 24.9691 123.019 17.704 124.431 17.9064C125.842 18.108 120.798 26.0731 120.798 26.0731C120.798 26.0731 126.447 19.5207 127.255 20.3279C128.062 21.135 122.816 26.0731 122.816 26.0731C122.816 26.0731 128.466 22.8295 129.071 23.8985C129.677 24.9691 123.421 27.7938 123.421 27.7938C123.421 27.7938 122.816 32.4351 118.982 34.4525C118.982 34.4525 111.391 54.9621 104.53 61.6209L82.4901 84.5274L78.4219 75.4178Z" fill="#FFC6B2"/>
<path fill-rule="evenodd" clip-rule="evenodd" d="M58.9097 83.3665C58.9097 83.3665 43.4218 99.5681 39.36 102.355C35.2973 105.14 21.7221 111.07 16.0032 118.482L8.36913 114.779C8.36913 114.779 7.13819 116.986 10.3532 118.429C10.3532 118.429 -0.188696 123.577 0.00257156 124.79C0.192252 126.003 8.09611 122.444 8.09611 122.444C8.09611 122.444 0.784307 127.422 0.973193 128.836C1.16208 130.249 9.17308 125.279 9.17308 125.279C9.17308 125.279 2.56841 130.867 3.3684 131.682C4.1668 132.497 9.15483 127.298 9.15483 127.298C9.15483 127.298 5.85805 132.917 6.92311 133.532C7.98659 134.147 10.8699 127.918 10.8699 127.918C10.8699 127.918 15.5159 127.358 17.5706 123.542C17.5706 123.542 36.9965 115.813 43.7202 109.014L67.8945 91.8847L58.9097 83.3665Z" fill="#FFC6B2"/>
<path fill-rule="evenodd" clip-rule="evenodd" d="M64.716 76.9092L56.8828 84.5775L58.8693 93.222C58.8693 93.222 66.5867 111.75 67.7533 116.27C69.5668 123.298 66.6335 134.015 66.6335 134.015C66.6335 134.015 79.7166 132.929 91.6212 132.525C103.525 132.121 107.419 128.286 107.419 128.286C107.419 128.286 97.0981 93.9101 89.9721 84.3005C82.8452 74.6925 80.2531 71.6846 80.2531 71.6846L69.7604 73.9782L64.716 76.9092Z" fill="#FAB005"/>
<path fill-rule="evenodd" clip-rule="evenodd" d="M87.705 83.1674L95.8668 77.9522C95.8668 77.9522 97.1136 72.3649 87.2709 65.7744L75.729 73.007L87.705 83.1674Z" fill="#22343D"/>
<path fill-rule="evenodd" clip-rule="evenodd" d="M58.5335 83.9711C54.059 84.5989 45.8821 95.9394 44.9702 95.918C44.9702 95.918 50.7249 105.309 55.2836 105.614C55.2836 105.614 75.3444 81.6132 58.5335 83.9711" fill="#22343D"/>
<path fill-rule="evenodd" clip-rule="evenodd" d="M74.3283 76.592C74.3283 76.592 67.8244 71.7324 68.0498 69.7951C68.107 69.307 69.0085 68.515 69.2427 67.8118C70.5038 64.0284 64.4237 54.28 60.688 52.2252C57.7492 50.6093 59.0372 50.4665 52.8524 54.1419C46.6676 57.8173 50.1913 64.1729 52.9532 67.4602C55.5643 70.5673 58.5547 71.8983 61.2452 72.1229L65.0705 80.6198L74.3283 76.592Z" fill="#FFC6B2"/>
<path fill-rule="evenodd" clip-rule="evenodd" d="M62.5929 83.3378C61.3627 80.3203 63.6921 76.5195 67.796 74.8457C71.9015 73.1711 76.2244 74.26 77.457 77.2759C78.6863 80.2925 74.5562 84.8275 72.2507 85.768C69.9452 86.7084 63.8222 86.3537 62.5929 83.3378" fill="#FFC6B2"/>
<path fill-rule="evenodd" clip-rule="evenodd" d="M52.9539 67.4604C52.9539 67.4604 50.8444 67.3437 50.6103 68.7493C50.3754 70.1556 54.4769 70.1556 56.0007 69.1009L52.9539 67.4604Z" fill="#FFC6B2"/>
<path fill-rule="evenodd" clip-rule="evenodd" d="M54.0085 68.7493C53.6077 66.2088 50.9006 64.3199 51.0355 61.8445C52.3331 61.8549 53.1664 60.2477 52.576 58.8739C52.3434 58.3342 51.9498 57.8723 51.6982 57.3398C51.4474 56.808 51.3807 56.1112 51.7657 55.8104C51.9482 55.6683 52.195 55.6437 52.4315 55.6199C54.3553 55.4223 57.6513 55.9993 59.4219 55.3429C61.1076 54.7183 62.9139 53.5032 62.7385 51.4381C62.5854 49.6397 60.9973 48.1818 59.5386 47.0802C58.7029 46.4484 56.3148 44.7968 55.414 44.9468C54.0386 45.1754 53.7053 47.0103 53.6061 48.5461C52.6442 47.6302 51.2252 47.777 50.3887 48.5223C49.5522 49.2675 49.1562 50.4516 48.7919 51.5945C48.4268 52.7381 48.0403 53.9255 47.2149 54.685C46.4459 55.3929 45.2292 55.9286 45.3888 57.1326C45.5784 58.5675 47.453 59.0779 48.3197 60.3017C48.1062 60.0017 47.9252 61.9176 48.0482 62.2422C48.4181 63.2207 49.3411 63.8684 50.0085 64.6168C51.4299 66.212 52.1252 67.8184 54.0085 68.7493" fill="#22343D"/>
<path fill-rule="evenodd" clip-rule="evenodd" d="M65.7931 62.9404L60.9868 65.4262C60.9868 65.4262 66.7598 69.6167 65.7931 62.9404" fill="white"/>
<path fill-rule="evenodd" clip-rule="evenodd" d="M59.1806 63.9257C59.4433 64.4241 59.0544 65.1447 58.3124 65.5352C57.5703 65.9257 56.7561 65.8384 56.4934 65.34C56.2315 64.8415 56.6196 64.1217 57.3616 63.7304C58.1045 63.34 58.9179 63.4273 59.1806 63.9257" fill="#FFB2A0"/>
<path fill-rule="evenodd" clip-rule="evenodd" d="M66.1982 59.1317C66.4609 59.6301 66.072 60.3508 65.33 60.7413C64.5879 61.1317 63.7736 61.0444 63.5109 60.546C63.249 60.0476 63.6371 59.327 64.3792 58.9365C65.122 58.546 65.9355 58.6333 66.1982 59.1317" fill="#FFB2A0"/>
<path fill-rule="evenodd" clip-rule="evenodd" d="M62.4376 62.7641C62.4153 62.7363 62.505 62.6181 62.713 62.4681C62.9114 62.3149 63.2566 62.1498 63.513 61.8736C63.7669 61.6061 63.8582 61.0482 63.4693 60.9696C63.0653 60.8323 62.6066 61.2958 62.0804 61.7363C61.9503 61.8442 61.8217 61.9514 61.6939 62.0569C61.5749 62.1665 61.3241 62.3268 61.0638 62.2942C60.5678 62.2141 60.3566 61.8831 60.1662 61.6617C59.7852 61.1728 59.5503 60.6609 59.4201 60.218C59.1622 59.3228 59.2781 58.745 59.34 58.7498C59.4265 58.7458 59.4551 59.3014 59.7828 60.0887C59.9479 60.48 60.1947 60.9244 60.5543 61.3442C60.7297 61.5569 60.9503 61.7554 61.1074 61.7617C61.1733 61.7649 61.2249 61.7427 61.3487 61.6387C61.4749 61.5331 61.6019 61.426 61.7304 61.3181C61.9955 61.1038 62.2249 60.8871 62.528 60.6855C62.8225 60.4871 63.2423 60.3617 63.6185 60.4895C64.0201 60.595 64.2558 61.0633 64.186 61.3887C64.1407 61.7204 63.9756 61.9649 63.7883 62.1435C63.3923 62.4744 63.0384 62.5546 62.8153 62.6546C62.5868 62.7411 62.4614 62.795 62.4376 62.7641" fill="#22343D"/>
<path fill-rule="evenodd" clip-rule="evenodd" d="M61.2456 72.1231C61.2456 72.1231 64.3114 72.1406 65.9749 71.116C65.9749 71.116 64.5678 72.8445 61.7519 73.2922L61.2456 72.1231Z" fill="#FFA192"/>
<path fill-rule="evenodd" clip-rule="evenodd" d="M62.5746 58.374C62.5469 58.5255 62.1183 58.5724 61.6651 58.7724C61.2056 58.9581 60.8739 59.2335 60.7461 59.1478C60.6152 59.0787 60.8318 58.5311 61.4524 58.27C62.0723 58.0073 62.6151 58.2311 62.5746 58.374" fill="#22343D"/>
<path fill-rule="evenodd" clip-rule="evenodd" d="M56.5663 62.3152C56.4505 62.2295 56.6322 61.7359 57.0735 61.2414C57.5203 60.7366 58.0909 60.5684 58.1512 60.7097C58.2147 60.847 57.8671 61.1668 57.4759 61.6105C57.0782 62.0525 56.6917 62.4089 56.5663 62.3152" fill="#22343D"/>
<path fill-rule="evenodd" clip-rule="evenodd" d="M54.2381 61.5534C53.9897 61.3692 53.796 60.5811 54.7468 59.5192C55.7063 58.4335 56.7785 58.6248 56.9071 58.9264C57.0452 59.2224 56.6881 59.6438 55.846 60.5986C54.9913 61.5502 54.5071 61.7549 54.2381 61.5534" fill="#22343D"/>
<path fill-rule="evenodd" clip-rule="evenodd" d="M59.2852 57.3705C59.1479 57.1133 59.2995 56.3649 60.5359 55.8435C61.7899 55.3046 62.6256 55.899 62.6137 56.2078C62.6113 56.5149 62.1391 56.73 61.0375 57.2046C59.928 57.6705 59.4336 57.6506 59.2852 57.3705" fill="#22343D"/>
<path fill-rule="evenodd" clip-rule="evenodd" d="M323.021 64.8152C323.102 64.8954 321.77 66.3938 319.006 68.0255C316.277 69.6557 311.983 71.2716 307.043 71.3081C302.103 71.3446 297.785 69.7922 295.032 68.2025C292.246 66.612 290.892 65.1327 290.971 65.0509C291.086 64.9057 292.6 66.1533 295.391 67.5192C298.154 68.8906 302.319 70.2517 307.034 70.2176C311.751 70.1819 315.895 68.7597 318.638 67.3477C321.407 65.9406 322.904 64.6708 323.021 64.8152" fill="#22343D"/>
<path fill-rule="evenodd" clip-rule="evenodd" d="M292.886 62.5517C292.811 62.7175 291.336 62.1056 288.852 61.5517C287.614 61.2596 286.111 61.0342 284.438 60.8263C282.759 60.6405 280.903 60.4929 278.943 60.3532C276.981 60.2159 275.104 60.058 273.4 59.8469C271.695 59.6207 270.163 59.3516 268.901 59.0104C266.368 58.3493 264.933 57.5667 264.983 57.4564C265.049 57.2897 266.558 57.8048 269.066 58.2564C270.318 58.4953 271.828 58.6802 273.51 58.8477C275.196 59.0016 277.058 59.1278 279.021 59.2659C280.986 59.4056 282.866 59.5858 284.569 59.8302C286.272 60.0977 287.799 60.4088 289.048 60.8056C291.557 61.5715 292.942 62.4477 292.886 62.5517" fill="#22343D"/>
<mask id="mask0_34_1400" style="mask-type:alpha" maskUnits="userSpaceOnUse" x="253" y="20" width="99" height="49">
<path fill-rule="evenodd" clip-rule="evenodd" d="M253.051 20.5051H352V68.9846H253.051V20.5051Z" fill="white"/>
</mask>
<g mask="url(#mask0_34_1400)">
<path fill-rule="evenodd" clip-rule="evenodd" d="M263.004 30.3246C267.714 29.3254 272.593 30.1857 277.341 30.977C282.09 31.7683 287.02 32.4818 291.663 31.2072C300.046 28.9064 306.409 20.4373 315.102 20.5055C318.681 20.5333 322.055 22.0619 325.542 22.8706C329.872 23.8754 334.383 23.7675 338.77 24.4841C343.157 25.2008 347.689 26.9651 350.168 30.6548C353.109 35.0334 352.303 41.2096 349.216 45.4874C346.13 49.766 341.187 52.3708 336.123 53.847C332.59 54.8763 328.827 55.4716 325.77 57.52C322.678 59.5922 320.659 62.9272 317.778 65.2835C310.549 71.1955 299.298 69.501 291.831 63.893C289.954 62.4843 288.216 60.8494 286.108 59.8184C277.534 55.6216 265.203 61.1772 257.819 53.5414C250.321 45.7866 251.389 32.7881 263.004 30.3246" fill="#22343D"/>
</g>
<path fill-rule="evenodd" clip-rule="evenodd" d="M260.651 180.507C260.651 180.507 268.507 197.345 269.426 194.227C270.343 191.108 270.039 183.62 269.547 182.551C269.053 181.482 265.842 176.759 265.842 176.759L260.651 180.507Z" fill="#FFB2A0"/>
<path fill-rule="evenodd" clip-rule="evenodd" d="M317.453 44.3534C318.18 45.2843 317.694 44.2843 318.517 45.6272C321.938 45.5081 324.234 42.6137 324.234 42.6137C324.234 42.6137 329.663 42.7573 329.601 41.7875C329.539 40.816 324.396 41.1787 324.396 41.1787C324.396 41.1787 329.836 39.47 329.538 38.6168C329.241 37.7644 322.96 40.4835 322.96 40.4835C322.96 40.4835 329.298 36.5494 328.362 35.9184C327.426 35.289 321.328 38.7232 321.328 38.7232C321.328 38.7232 326.628 34.37 325.833 33.8089C325.04 33.2477 317.689 38.9136 317.689 38.9136C317.796 36.1263 315.797 36.224 315.797 36.224L315.879 43.0295C315.879 43.0295 317.118 43.9248 317.453 44.3534" fill="#FFC6B2"/>
<path fill-rule="evenodd" clip-rule="evenodd" d="M236.975 13.5516C235.813 13.7659 236.714 13.3619 235.206 13.8222C232.729 11.4603 233.058 7.7484 233.058 7.7484C233.058 7.7484 228.904 4.25155 229.593 3.56822C230.286 2.88329 233.889 6.56903 233.889 6.56903C233.889 6.56903 230.957 1.67853 231.746 1.23884C232.534 0.799157 235.427 7.00236 235.427 7.00236C235.427 7.00236 233.298 -0.147673 234.417 0.00232757C235.535 0.152328 237.816 6.76823 237.816 6.76823C237.816 6.76823 236.743 -0.00481532 237.707 0.102328C238.673 0.208678 240.41 9.32698 240.41 9.32698C242.18 7.17141 243.609 8.57221 243.609 8.57221L239.123 13.5064C239.123 13.5064 237.509 13.454 236.975 13.5516" fill="#FFC6B2"/>
<path fill-rule="evenodd" clip-rule="evenodd" d="M265.155 41.9794C263.653 41.7326 260.02 44.1469 258.203 48.0819C257.185 50.2842 256.485 52.5216 257.653 56.1033C258.203 57.7882 259.354 57.9994 259.611 58.7541C259.935 59.7097 258.86 62.7216 258.86 62.7216L263.148 64.4534C263.427 62.3843 263.742 60.3025 265.851 59.4041C266.64 59.0676 267.484 58.8549 268.229 58.4279C270.238 57.2763 271.311 54.7573 272.136 52.6946C272.752 51.1541 268.922 42.5969 265.155 41.9794" fill="#FFC6B2"/>
<path fill-rule="evenodd" clip-rule="evenodd" d="M260.051 100.458L252.867 97.5757C252.867 97.5757 231.547 137.113 231.636 148.083C231.724 159.052 260.918 181.015 260.918 181.015L265.841 176.759C265.841 176.759 256.828 161.043 252.01 155.501C247.191 149.958 260.051 100.458 260.051 100.458" fill="#FFB2A0"/>
<path fill-rule="evenodd" clip-rule="evenodd" d="M295.721 145.497C295.721 145.497 311.555 137.985 308.373 137.321C305.191 136.661 297.75 137.571 296.726 138.149C295.699 138.727 291.253 142.311 291.253 142.311L295.721 145.497Z" fill="#FFC6B2"/>
<path fill-rule="evenodd" clip-rule="evenodd" d="M267.108 100.115L256.21 104.081C256.21 104.081 245.308 152.03 249.47 159.558C253.63 167.089 265.318 162.105 281.964 153.02L295.907 145.409L291.253 142.312C291.253 142.312 275.029 145.491 270.472 148.661C270.472 148.661 272.85 141.924 276.021 132.413C279.19 122.902 281.377 113.193 267.108 100.115" fill="#FFC6B2"/>
<path fill-rule="evenodd" clip-rule="evenodd" d="M253.693 67.4487C253.693 64.263 254.719 61.959 257.904 61.959C261.09 61.959 265.494 63.0757 265.494 66.2622C265.494 69.4495 262.984 74.6233 259.796 74.6233C256.611 74.6233 253.693 70.636 253.693 67.4487" fill="#FFC6B2"/>
<path fill-rule="evenodd" clip-rule="evenodd" d="M256.209 61.5026C256.209 61.5026 246.303 50.7819 244.321 40.2794C242.339 29.7786 238.972 12.738 238.972 12.738L235.207 13.8222C235.207 13.8222 233.423 37.1104 235.207 40.6763C236.99 44.2429 245.703 67.9875 248.356 74.2232L256.209 61.5026Z" fill="#FFC6B2"/>
<path fill-rule="evenodd" clip-rule="evenodd" d="M266.852 69.8581C266.852 69.8581 267.613 66.5231 280.14 61.9906C292.667 57.4588 316.3 42.769 316.3 42.769L318.658 45.4667C318.658 45.4667 305.817 60.2993 298.346 62.9009C290.876 65.5033 275.009 75.7613 273.376 76.5819C270.907 77.824 270.937 79.3867 266.852 69.8581" fill="#FFC6B2"/>
<path fill-rule="evenodd" clip-rule="evenodd" d="M256.209 61.5027C256.209 61.5027 246.144 64.7646 246.144 80.0798C246.144 80.0798 246.15 101.055 248.523 104.871C248.523 104.871 252.379 105.859 257.187 104.871C262.228 103.835 267.107 100.116 267.107 100.116L275.025 76.3464L274.078 65.2098L263.313 63.1313C263.313 63.1313 266.401 77.5623 255.228 71.3583C253.057 70.1527 258.422 61.9654 258.422 61.9654L256.209 61.5027Z" fill="#4DADF7"/>
<path fill-rule="evenodd" clip-rule="evenodd" d="M247.693 73.9585L242.734 63.6259C242.734 63.6259 243.445 57.3576 252.55 55.1116C252.55 55.1116 253.47 58.2711 254.48 59.4783C255.488 60.6846 258.427 61.9687 258.427 61.9687L247.693 73.9585Z" fill="#22343D"/>
<path fill-rule="evenodd" clip-rule="evenodd" d="M266.443 78.1117L282.213 74.8791C282.213 74.8791 284.955 69.1982 278.454 62.4402C278.454 62.4402 266.152 63.183 264.56 63.3156C262.993 63.4457 264.069 64.6529 264.069 64.6529L266.443 78.1117Z" fill="#22343D"/>
<path fill-rule="evenodd" clip-rule="evenodd" d="M248.497 99.7618C248.497 99.7618 233.581 127.341 231.117 132.268C231.117 132.268 275.123 152.483 292.987 128.151C292.987 128.151 282.826 106.643 267.116 98.4547L260.339 96.4253L248.762 99.6293" fill="#4DADF7"/>
<path fill-rule="evenodd" clip-rule="evenodd" d="M271.559 52.4339C271.559 52.4339 273.258 50.7346 274.303 51.9108C275.349 53.087 270.514 54.7862 270.514 54.7862L271.559 52.4339Z" fill="#FFC6B2"/>
<path fill-rule="evenodd" clip-rule="evenodd" d="M302.639 29.2592C302.656 29.318 301.999 29.6021 300.746 29.8997C299.496 30.2005 297.642 30.4735 295.338 30.5203C293.035 30.5664 290.297 30.3616 287.3 29.9553C284.301 29.5576 281.043 28.9735 277.616 28.5997C274.193 28.2338 270.903 28.1672 267.989 28.6378C265.074 29.1005 262.551 30.0553 260.622 31.1704C258.694 32.2942 257.352 33.541 256.528 34.4847C255.699 35.4291 255.326 36.0323 255.242 35.9815C255.196 35.9577 255.445 35.2783 256.196 34.2196C256.942 33.164 258.259 31.7711 260.222 30.5116C262.184 29.26 264.792 28.1846 267.822 27.6465C270.856 27.1005 274.25 27.1426 277.731 27.5156C281.216 27.8957 284.478 28.5132 287.442 28.9608C290.406 29.4172 293.084 29.6965 295.34 29.7489C299.861 29.8751 302.598 29.0727 302.639 29.2592" fill="#22343D"/>
<path fill-rule="evenodd" clip-rule="evenodd" d="M262.906 51.4692C262.901 51.5358 262.417 51.5827 261.678 51.3374C261.495 51.2731 261.28 51.189 261.079 51.0049C260.98 50.9128 260.888 50.7906 260.831 50.6438C260.75 50.4382 260.757 50.2049 260.837 50.0271C260.861 49.9914 260.859 49.9065 260.906 49.9049L261.049 49.9001C261.141 49.8874 261.25 49.9176 261.357 49.9374C261.552 49.9747 261.614 49.9692 261.753 49.9787C261.997 49.9842 262.249 49.9588 262.502 49.9033C263.534 49.6858 264.224 48.935 264.533 48.3176C264.858 47.6961 264.887 47.2287 264.973 47.2342C265.034 47.2263 265.155 47.7231 264.887 48.4731C264.75 48.8406 264.513 49.262 264.13 49.6319C263.749 50.0009 263.221 50.3041 262.622 50.435C262.322 50.5017 262.022 50.5271 261.732 50.512C261.606 50.5057 261.407 50.4803 261.349 50.4676C261.296 50.4588 261.303 50.4469 261.292 50.4533C261.286 50.4596 261.283 50.47 261.284 50.485C261.305 50.5565 261.344 50.6247 261.399 50.6858C261.509 50.8104 261.669 50.9033 261.826 50.9811C262.464 51.2946 262.918 51.3874 262.906 51.4692" fill="#22343D"/>
<path fill-rule="evenodd" clip-rule="evenodd" d="M259.368 51.6528L265.178 53.9417C265.178 53.9417 260.072 57.4624 259.368 51.6528" fill="white"/>
<path fill-rule="evenodd" clip-rule="evenodd" d="M267.659 52.7543C267.452 53.1464 266.813 53.2146 266.229 52.9075C265.646 52.6011 265.34 52.0345 265.546 51.6432C265.752 51.2511 266.393 51.1821 266.976 51.4892C267.559 51.7964 267.865 52.3622 267.659 52.7543" fill="#FFB2A0"/>
<path fill-rule="evenodd" clip-rule="evenodd" d="M261.175 49.3164C260.998 49.7227 260.366 49.8402 259.761 49.5783C259.156 49.3164 258.808 48.7751 258.984 48.3688C259.16 47.9624 259.793 47.845 260.398 48.1069C261.002 48.3688 261.351 48.91 261.175 49.3164" fill="#FFB2A0"/>
<path fill-rule="evenodd" clip-rule="evenodd" d="M259.022 58.0242C259.022 58.0242 261.059 59.7297 263.184 59.1805C263.184 59.1805 262.451 60.2789 259.631 59.8758C259.631 59.8758 259.865 58.6654 259.022 58.0242" fill="#FFA192"/>
<path fill-rule="evenodd" clip-rule="evenodd" d="M267.101 49.1056C267.101 49.3596 266.894 49.5659 266.64 49.5659C266.387 49.5659 266.18 49.3596 266.18 49.1056C266.18 48.8516 266.387 48.6453 266.64 48.6453C266.894 48.6453 267.101 48.8516 267.101 49.1056" fill="#22343D"/>
<path fill-rule="evenodd" clip-rule="evenodd" d="M263.335 47.7489C263.335 48.0029 263.129 48.2092 262.875 48.2092C262.621 48.2092 262.415 48.0029 262.415 47.7489C262.415 47.4949 262.621 47.2886 262.875 47.2886C263.129 47.2886 263.335 47.4949 263.335 47.7489" fill="#22343D"/>
<path fill-rule="evenodd" clip-rule="evenodd" d="M268.58 47.8793C268.438 47.9397 268.163 47.6071 267.747 47.3381C267.34 47.0571 266.928 46.9309 266.928 46.777C266.915 46.6293 267.491 46.5095 268.051 46.8849C268.611 47.2579 268.722 47.8349 268.58 47.8793" fill="#22343D"/>
<path fill-rule="evenodd" clip-rule="evenodd" d="M261.942 45.6461C261.933 45.5025 262.427 45.3215 263.089 45.339C263.763 45.3533 264.26 45.6803 264.191 45.8168C264.128 45.9549 263.659 45.8954 263.067 45.8842C262.473 45.8668 261.952 45.8025 261.942 45.6461" fill="#22343D"/>
<path fill-rule="evenodd" clip-rule="evenodd" d="M264.016 187.349C264.016 187.349 266.432 195.927 268.927 195.224C271.423 194.523 269.547 182.551 269.547 182.551L267.057 178.616C267.057 178.616 269.396 198.655 264.016 187.349" fill="#22343D"/>
<path fill-rule="evenodd" clip-rule="evenodd" d="M294.489 139.794C294.489 139.794 296.246 137.877 298.377 137.557C300.507 137.238 308.122 136.332 309.241 137.344C310.36 138.356 303.069 141.749 303.069 141.749C303.069 141.749 305.609 140.13 304.554 139.528C302.69 138.462 294.489 139.794 294.489 139.794" fill="#22343D"/>
<path fill-rule="evenodd" clip-rule="evenodd" d="M291.467 142.09L293.851 146.931L295.152 146.209L291.973 141.44L291.467 142.09Z" fill="#22343D"/>
<path fill-rule="evenodd" clip-rule="evenodd" d="M264.808 174.818L258.956 180.093L260.69 181.538L265.603 176.191L264.808 174.818Z" fill="#22343D"/>
<path fill-rule="evenodd" clip-rule="evenodd" d="M142.457 122.308C140.793 118.178 140.153 113.58 137.67 109.884C134.096 104.565 127.232 101.926 124.332 96.2121C123.1 93.7851 122.714 91.0089 122.701 88.2875C122.677 82.9033 124.289 77.1795 128.448 73.758C133.226 69.8263 140.396 69.881 145.993 72.5223C151.588 75.1636 155.863 79.9581 159.498 84.966C163.134 89.9732 166.316 95.347 170.55 99.8598C173.688 103.206 177.411 106.092 179.776 110.023C186.257 120.8 179.588 134.435 168.146 138.325C158.091 141.742 145.936 130.943 142.457 122.308" fill="#22343D"/>
<path fill-rule="evenodd" clip-rule="evenodd" d="M128.133 198.317C129.128 199.135 128.043 198.568 129.49 199.511C129.167 203.128 125.822 205.406 125.822 205.406C125.822 205.406 125.681 211.164 124.606 211.046C123.529 210.929 124.219 205.501 124.219 205.501C124.219 205.501 122.017 211.173 121.085 210.812C120.154 210.452 123.525 203.944 123.525 203.944C123.525 203.944 118.8 210.448 118.151 209.423C117.502 208.398 121.66 202.122 121.66 202.122C121.66 202.122 116.526 207.505 115.946 206.633C115.367 205.764 122.073 198.278 122.073 198.278C118.969 198.244 119.189 196.132 119.189 196.132L126.749 196.58C126.749 196.58 127.675 197.939 128.133 198.317" fill="#FFC6B2"/>
<path fill-rule="evenodd" clip-rule="evenodd" d="M200.358 89.7219C201.652 89.9488 200.648 89.5203 202.326 90.0084C205.083 87.5036 204.717 83.5679 204.717 83.5679C204.717 83.5679 209.341 79.8599 208.574 79.1353C207.803 78.4091 203.792 82.3163 203.792 82.3163C203.792 82.3163 207.055 77.1313 206.178 76.6646C205.301 76.1988 202.082 82.7766 202.082 82.7766C202.082 82.7766 204.451 75.1948 203.205 75.3535C201.962 75.5131 199.423 82.5282 199.423 82.5282C199.423 82.5282 200.617 75.3464 199.543 75.4599C198.468 75.5726 196.73 84.9814 196.73 84.9814C194.198 82.921 192.426 84.2401 192.426 84.2401L197.967 89.6734C197.967 89.6734 199.763 89.6187 200.358 89.7219" fill="#FFC6B2"/>
<path fill-rule="evenodd" clip-rule="evenodd" d="M168.707 121.168C171.046 120.803 178.179 125.425 176.364 134.812C176.212 135.6 175.183 137.335 174.926 138.052C174.603 138.961 177.126 142.287 177.126 142.287L170.612 144.368C170.334 142.401 170.802 139.525 168.697 138.671C167.91 138.351 167.067 138.148 166.324 137.743C164.319 136.648 163.248 134.252 162.424 132.291C161.809 130.825 161.341 129.248 161.358 127.658C161.401 123.653 164.948 121.756 168.707 121.168" fill="#FFC6B2"/>
<path fill-rule="evenodd" clip-rule="evenodd" d="M181.751 146.876C181.751 143.497 180.679 142.207 177.133 142.207C173.587 142.207 168.906 143.497 168.906 146.876C168.906 150.255 171.41 154.484 174.958 154.484C178.503 154.484 181.751 150.255 181.751 146.876" fill="#FFC6B2"/>
<path fill-rule="evenodd" clip-rule="evenodd" d="M178.95 140.57C178.95 140.57 189.976 129.201 192.182 118.065C194.388 106.929 198.136 88.8591 198.136 88.8591L202.326 90.0083C202.326 90.0083 204.312 114.704 202.326 118.485C200.342 122.268 189.094 148.532 189.314 155.255L178.95 140.57Z" fill="#FFC6B2"/>
<path fill-rule="evenodd" clip-rule="evenodd" d="M159.296 146.074C159.296 146.074 155.547 146.704 149.813 159.732C144.079 172.759 126.436 197.012 126.436 197.012L129.303 199.652C129.303 199.652 146.505 186.836 149.813 179.062C153.12 171.289 157.31 161.623 159.296 162.043C161.28 162.464 169.661 150.906 159.296 146.074" fill="#FFC6B2"/>
<path fill-rule="evenodd" clip-rule="evenodd" d="M188.815 156.992L193.949 142.822C193.949 142.822 193.157 136.176 183.024 133.793L177.284 142.064L188.815 156.992Z" fill="#22343D"/>
<path fill-rule="evenodd" clip-rule="evenodd" d="M161.008 144.987C161.008 144.987 154.95 145.497 150.041 156.281C150.041 156.281 155.44 163.735 159.39 163.986C159.39 163.986 174.061 151.446 161.008 144.987" fill="#22343D"/>
<path fill-rule="evenodd" clip-rule="evenodd" d="M177.65 272.866C177.65 272.866 168.907 290.721 167.884 287.415C166.864 284.108 167.201 276.167 167.749 275.033C168.299 273.899 171.873 268.891 171.873 268.891L177.65 272.866Z" fill="#FFC6B2"/>
<path fill-rule="evenodd" clip-rule="evenodd" d="M178.318 187.98L186.314 184.923C186.314 184.923 210.044 226.851 209.946 238.483C209.847 250.114 177.354 273.405 177.354 273.405L171.873 268.891C171.873 268.891 187.274 246.247 192.637 240.37C195.319 237.432 176.121 223.03 173.213 209.173C170.305 195.315 178.318 187.98 178.318 187.98" fill="#22343D"/>
<path fill-rule="evenodd" clip-rule="evenodd" d="M130.243 263.512C130.243 263.512 113.887 275.568 114.568 272.185C115.25 268.798 119.367 261.887 120.4 261.118C121.434 260.351 127.018 257.458 127.018 257.458L130.243 263.512Z" fill="#FFC6B2"/>
<path fill-rule="evenodd" clip-rule="evenodd" d="M156.564 202.827L180.221 189.117C180.221 189.117 181.159 236.743 175.48 247.04C169.802 257.338 129.72 263.862 129.72 263.862L127.018 257.459C127.018 257.459 151.746 242.725 159.338 239.842C166.931 236.957 156.564 202.827 156.564 202.827" fill="#22343D"/>
<path fill-rule="evenodd" clip-rule="evenodd" d="M170.652 179.739C170.652 179.739 153.234 185.906 156.564 202.828C159.893 219.748 165.443 222.92 165.443 222.92L175.433 206.529L185.462 185.063L175.433 183.791L170.652 179.739Z" fill="#22343D"/>
<path fill-rule="evenodd" clip-rule="evenodd" d="M178.951 140.57C178.951 140.57 191.775 147.757 191.775 163.997C191.775 163.997 190.146 182.513 187.505 186.558C187.505 186.558 183.213 187.606 177.862 186.558C172.251 185.459 166.821 181.516 166.821 181.516L162.438 158.847L159.029 145.612L160.877 145.002L170.522 143.943C170.522 143.943 169.137 158.351 179.906 151.196C182.175 149.689 177.083 142.176 177.083 142.176L178.951 140.57Z" fill="#F03E3D"/>
<path fill-rule="evenodd" clip-rule="evenodd" d="M186.8 79.1991L213.689 94.8849L228.814 66.3149L203.606 52.3101L186.8 79.1991Z" fill="#F03E3D"/>
<path fill-rule="evenodd" clip-rule="evenodd" d="M224.207 215.961L243.438 204.056L227.55 176.323L209.971 187.723L224.207 215.961Z" fill="#02897A"/>
<path fill-rule="evenodd" clip-rule="evenodd" d="M140.564 58.8264L150.27 52.8787L142.251 39.0234L133.379 44.7185L140.564 58.8264Z" fill="#740A76"/>
<path fill-rule="evenodd" clip-rule="evenodd" d="M129.52 97.7858C129.571 97.7406 130.164 98.2795 131.103 99.3787C132.038 100.479 133.314 102.153 134.594 104.412C135.879 106.661 137.15 109.515 138.058 112.828C138.998 116.116 139.628 119.812 141.072 123.372C141.822 125.131 142.731 126.769 143.813 128.216C144.904 129.654 146.114 130.916 147.36 132.017C149.906 134.16 152.574 135.634 154.951 136.485C157.325 137.349 159.359 137.736 160.773 137.875C162.186 138.031 162.985 138.054 162.985 138.147C162.989 138.205 162.193 138.326 160.743 138.299C159.293 138.288 157.182 138.011 154.697 137.214C152.209 136.428 149.399 134.974 146.712 132.784C145.394 131.659 144.113 130.356 142.959 128.858C141.814 127.352 140.848 125.63 140.063 123.786C138.558 120.065 137.963 116.336 137.088 113.091C136.252 109.836 135.091 107.034 133.916 104.78C132.748 102.52 131.59 100.806 130.768 99.6382C129.942 98.4723 129.458 97.8406 129.52 97.7858" fill="#22343D"/>
<path fill-rule="evenodd" clip-rule="evenodd" d="M162.556 79.4346C162.754 79.4044 162.946 82.0513 164.427 85.9664C165.166 87.9164 166.266 90.16 167.846 92.4092C168.636 93.5354 169.545 94.645 170.573 95.7505C171.595 96.8609 172.707 97.9886 173.759 99.2537C175.868 101.807 177.318 104.566 178.684 107.002C180.041 109.462 181.121 111.801 181.67 113.894C182.243 115.981 182.276 117.777 182.095 118.968C181.905 120.165 181.607 120.771 181.558 120.755C181.464 120.73 181.618 120.09 181.672 118.93C181.718 117.772 181.571 116.085 180.93 114.113C180.311 112.132 179.198 109.901 177.808 107.493C176.397 105.087 174.934 102.383 172.919 99.9498C171.908 98.7323 170.811 97.6085 169.784 96.4704C168.75 95.3378 167.811 94.1585 167.018 92.9783C165.427 90.6156 164.365 88.2608 163.7 86.2251C163.02 84.1902 162.731 82.4727 162.593 81.2894C162.458 80.1036 162.494 79.4401 162.556 79.4346" fill="#22343D"/>
<path fill-rule="evenodd" clip-rule="evenodd" d="M170.799 131.371C170.789 131.295 171.227 131.225 171.64 130.739C171.736 130.627 171.832 130.464 171.83 130.369C171.828 130.266 171.756 130.088 171.633 129.986C171.505 129.872 171.363 129.816 171.176 129.835C170.982 129.85 170.747 129.946 170.439 129.992C169.764 130.081 169.238 129.7 168.892 129.392C168.536 129.067 168.265 128.738 168.063 128.442C167.66 127.848 167.534 127.419 167.596 127.387C167.667 127.349 167.91 127.704 168.365 128.203C168.592 128.45 168.879 128.734 169.217 129.008C169.55 129.274 169.958 129.516 170.365 129.452C170.581 129.424 170.832 129.323 171.139 129.303C171.451 129.272 171.798 129.415 171.988 129.63C172.19 129.849 172.304 130.107 172.28 130.412C172.22 130.725 172.054 130.871 171.917 131.007C171.324 131.527 170.78 131.442 170.799 131.371" fill="#22343D"/>
<path fill-rule="evenodd" clip-rule="evenodd" d="M173.977 131.818L168.812 133.696C168.812 133.696 173.194 137.529 173.977 131.818" fill="white"/>
<path fill-rule="evenodd" clip-rule="evenodd" d="M168.297 131.498C168.504 131.89 168.198 132.457 167.615 132.764C167.032 133.071 166.392 133.002 166.186 132.61C165.979 132.219 166.285 131.652 166.868 131.345C167.451 131.038 168.091 131.106 168.297 131.498" fill="#FFB2A0"/>
<path fill-rule="evenodd" clip-rule="evenodd" d="M174.419 128.359C174.588 128.769 174.231 129.304 173.622 129.555C173.013 129.808 172.382 129.68 172.213 129.27C172.044 128.861 172.401 128.326 173.01 128.074C173.619 127.823 174.25 127.95 174.419 128.359" fill="#FFB2A0"/>
<path fill-rule="evenodd" clip-rule="evenodd" d="M168.965 138.808C168.965 138.808 170.693 139.16 172.895 138.61C172.895 138.61 171.81 139.664 170.036 139.91C170.036 139.91 169.638 139.175 168.965 138.808" fill="#FFA192"/>
<path fill-rule="evenodd" clip-rule="evenodd" d="M170.731 127.2C170.924 127.364 170.948 127.654 170.784 127.848C170.62 128.042 170.33 128.065 170.136 127.901C169.942 127.738 169.918 127.447 170.082 127.253C170.247 127.059 170.537 127.035 170.731 127.2" fill="#22343D"/>
<path fill-rule="evenodd" clip-rule="evenodd" d="M167.26 129.196C167.454 129.36 167.477 129.651 167.313 129.845C167.15 130.038 166.859 130.062 166.665 129.898C166.471 129.733 166.447 129.444 166.612 129.249C166.776 129.056 167.066 129.032 167.26 129.196" fill="#22343D"/>
<path fill-rule="evenodd" clip-rule="evenodd" d="M170.751 125.279C170.705 125.426 170.274 125.421 169.8 125.564C169.323 125.693 168.96 125.926 168.843 125.825C168.721 125.741 169.002 125.224 169.65 125.04C170.297 124.853 170.809 125.142 170.751 125.279" fill="#22343D"/>
<path fill-rule="evenodd" clip-rule="evenodd" d="M164.756 128.899C164.64 128.814 164.822 128.32 165.263 127.826C165.709 127.321 166.281 127.153 166.34 127.294C166.405 127.431 166.056 127.751 165.665 128.195C165.268 128.637 164.882 128.994 164.756 128.899" fill="#22343D"/>
<path fill-rule="evenodd" clip-rule="evenodd" d="M162.808 132.734C162.808 132.734 161.152 131.343 160.357 132.601C159.562 133.86 163.934 134.523 163.934 134.523L162.808 132.734Z" fill="#FFC6B2"/>
<path fill-rule="evenodd" clip-rule="evenodd" d="M122.982 259.595C122.982 259.595 120.607 260.627 119.988 261.247C119.369 261.866 113.69 271.674 114.413 272.913C115.136 274.152 120.83 269.946 120.83 269.946C120.83 269.946 116.065 270.849 122.982 259.595" fill="#22343D"/>
<path fill-rule="evenodd" clip-rule="evenodd" d="M169.318 272.564C169.318 272.564 167.632 274.387 167.372 275.225C167.111 276.06 166.645 287.384 167.862 288.144C169.078 288.906 172.402 282.657 172.402 282.657C172.402 282.657 168.428 285.77 169.318 272.59" fill="#22343D"/>
</svg>
